<svg width="80" height="78" viewBox="0 0 80 78" fill="none" xmlns="http://www.w3.org/2000/svg">
<path d="M75.2091 7.54767L62.1176 24.6241C63.6583 25.8215 64.8538 25.7531 66.8547 25.9243C70.5312 26.5851 71.7264 27.4871 73.6588 29.2183C75.9459 31.4861 76.6612 32.7806 77.3624 35.1127C78.0456 38.1503 78.3269 39.7062 78.6543 42.2206C79.0968 45.8383 79.1333 47.7068 78.6543 50.6288C78.3175 54.6013 77.7877 56.4085 76.5011 59.2104C75.3741 61.5123 74.4962 62.8631 71.8501 65.5382C70.0732 66.5432 69.0693 67.1085 67.1992 68.1386C67.8439 65.3772 68.0496 63.7354 68.0605 60.5973C67.7573 58.0861 67.3289 56.6501 65.8211 54.0094C63.5772 52.1515 62.2376 51.414 59.706 50.6288C55.6669 49.8792 53.7238 50.3032 50.4903 51.669C47.336 53.5195 46.1599 54.8191 44.6336 57.39C43.6928 60.4275 43.4056 62.0248 43.9445 64.4113C44.8945 67.3886 45.7717 68.848 48.0787 70.9992C51.0192 72.7396 52.6036 73.57 55.0551 74.2064C51.4523 75.369 49.3374 76.0025 43.4278 76.7202C39.4886 77.0225 37.2236 77.1579 32.0588 76.7202C27.5057 76.195 24.8283 75.6712 20.0008 74.6398C16.2886 73.4672 14.2022 72.799 10.4406 71.5193C6.8952 70.4567 5.0835 69.631 2 67.9653L4.66998 63.8045C6.35587 60.8788 6.93339 59.221 7.94286 56.2632C9.10188 52.594 9.64751 50.429 10.4406 46.3814C11.3531 39.0362 11.9964 35.0874 14.058 29.2183C17.4603 22.5833 19.704 19.5618 24.5656 15.9559C31.9306 11.6495 36.6628 10.9418 46.0977 12.4886C52.135 13.9149 55.0747 16.1657 59.6199 22.457L65.9934 2L75.2091 7.54767Z" fill="white" stroke="white" stroke-width="2"/>
</svg>
